# xmcd
#
# Track frame offsets: 
#        150
#        14377
#        35186
#        63880
#        86164
#        109794
#        127723
#        146087
#        163791
#        182701
#        198867
#        213397
#
# Disc length: 3149 seconds
#
# Revision: 0
# Processed by: cddbd v1.5.2PL0 Copyright (c) Steve Scherf et al.
# Submitted via: ExactAudioCopy v0.99pb5
#
DISCID=a70c4b0c
DTITLE=Frankfurt City Blues Band - Life Isn´t Meant To Be Happy
DYEAR=2004
DGENRE=Blues
TTITLE0=Frankfurt On My Mind 
TTITLE1=Danger Zone
TTITLE2=Cannibal Love
TTITLE3=You Really Got Me
TTITLE4=Nothing But Your Love
TTITLE5=Man In The Moon
TTITLE6=Love Me Tender
TTITLE7=We Don´T Even Need To Go Out
TTITLE8=Nothing But A Conversation 
TTITLE9=Don´T Tell My Mother 
TTITLE10=Stranger In Paradise 
TTITLE11=The Blues Is Gonna Stay
EXTD=
EXTT0=
EXTT1=
EXTT2=
EXTT3=
EXTT4=
EXTT5=
EXTT6=
EXTT7=
EXTT8=
EXTT9=
EXTT10=
EXTT11=
PLAYORDER=
